<mxfile host="app.diagrams.net" modified="2021-08-03T22:27:07.882Z" agent="5.0 (Windows)" etag="X6kE0CxH9uymxH7HvOk1" version="14.9.4" type="github">
  <diagram id="-hOO6pBJeaupnMBuRkcR" name="Page-1">
    <mxGraphModel dx="1422" dy="752" grid="1" gridSize="10" guides="1" tooltips="1" connect="1" arrows="1" fold="1" page="1" pageScale="1" pageWidth="827" pageHeight="1169" math="0" shadow="0">
      <root>
        <mxCell id="0" />
        <mxCell id="1" parent="0" />
        <mxCell id="0BrPGM0M6bQbIfucwhwL-17" style="edgeStyle=orthogonalEdgeStyle;curved=0;rounded=1;sketch=0;orthogonalLoop=1;jettySize=auto;html=1;entryX=0.5;entryY=1;entryDx=0;entryDy=0;fontColor=#5C5C5C;strokeColor=#006658;fillColor=#21C0A5;" edge="1" parent="1" source="0BrPGM0M6bQbIfucwhwL-1" target="0BrPGM0M6bQbIfucwhwL-9">
          <mxGeometry relative="1" as="geometry" />
        </mxCell>
        <mxCell id="0BrPGM0M6bQbIfucwhwL-20" style="edgeStyle=orthogonalEdgeStyle;curved=0;rounded=1;sketch=0;orthogonalLoop=1;jettySize=auto;html=1;fontColor=#5C5C5C;strokeColor=#006658;fillColor=#21C0A5;" edge="1" parent="1" source="0BrPGM0M6bQbIfucwhwL-1" target="0BrPGM0M6bQbIfucwhwL-2">
          <mxGeometry relative="1" as="geometry" />
        </mxCell>
        <mxCell id="0BrPGM0M6bQbIfucwhwL-21" style="edgeStyle=orthogonalEdgeStyle;curved=0;rounded=1;sketch=0;orthogonalLoop=1;jettySize=auto;html=1;fontColor=#5C5C5C;strokeColor=#006658;fillColor=#21C0A5;" edge="1" parent="1" source="0BrPGM0M6bQbIfucwhwL-1" target="0BrPGM0M6bQbIfucwhwL-3">
          <mxGeometry relative="1" as="geometry" />
        </mxCell>
        <mxCell id="0BrPGM0M6bQbIfucwhwL-1" value="" style="aspect=fixed;html=1;points=[];align=center;image;fontSize=12;image=img/lib/mscae/Docker.svg;fillColor=#21C0A5;strokeColor=#006658;fontColor=#5C5C5C;" vertex="1" parent="1">
          <mxGeometry x="235" y="260" width="85.37" height="70" as="geometry" />
        </mxCell>
        <mxCell id="0BrPGM0M6bQbIfucwhwL-2" value="" style="outlineConnect=0;dashed=0;verticalLabelPosition=bottom;verticalAlign=top;align=center;html=1;shape=mxgraph.aws3.android;fillColor=#21C0A5;strokeColor=#006658;fontColor=#5C5C5C;" vertex="1" parent="1">
          <mxGeometry x="270" y="360" width="60" height="70" as="geometry" />
        </mxCell>
        <mxCell id="0BrPGM0M6bQbIfucwhwL-24" style="edgeStyle=orthogonalEdgeStyle;curved=0;rounded=1;sketch=0;orthogonalLoop=1;jettySize=auto;html=1;fontColor=#5C5C5C;strokeColor=#006658;fillColor=#21C0A5;" edge="1" parent="1" source="0BrPGM0M6bQbIfucwhwL-3" target="0BrPGM0M6bQbIfucwhwL-23">
          <mxGeometry relative="1" as="geometry" />
        </mxCell>
        <mxCell id="0BrPGM0M6bQbIfucwhwL-3" value="" style="aspect=fixed;html=1;points=[];align=center;image;fontSize=12;image=img/lib/azure2/databases/Azure_Database_MariaDB_Server.svg;fillColor=#21C0A5;strokeColor=#006658;fontColor=#5C5C5C;" vertex="1" parent="1">
          <mxGeometry x="590" y="230" width="55.5" height="74" as="geometry" />
        </mxCell>
        <mxCell id="0BrPGM0M6bQbIfucwhwL-4" value="node_pm" style="swimlane;fontStyle=0;childLayout=stackLayout;horizontal=1;startSize=26;horizontalStack=0;resizeParent=1;resizeParentMax=0;resizeLast=0;collapsible=1;marginBottom=0;fillColor=#21C0A5;strokeColor=#006658;fontColor=#5C5C5C;" vertex="1" parent="1">
          <mxGeometry x="640" y="290" width="140" height="130" as="geometry" />
        </mxCell>
        <mxCell id="0BrPGM0M6bQbIfucwhwL-13" value="devices" style="text;strokeColor=none;fillColor=none;align=left;verticalAlign=top;spacingLeft=4;spacingRight=4;overflow=hidden;rotatable=0;points=[[0,0.5],[1,0.5]];portConstraint=eastwest;fontColor=#5C5C5C;" vertex="1" parent="0BrPGM0M6bQbIfucwhwL-4">
          <mxGeometry y="26" width="140" height="26" as="geometry" />
        </mxCell>
        <mxCell id="0BrPGM0M6bQbIfucwhwL-6" value="interfaces" style="text;strokeColor=none;fillColor=none;align=left;verticalAlign=top;spacingLeft=4;spacingRight=4;overflow=hidden;rotatable=0;points=[[0,0.5],[1,0.5]];portConstraint=eastwest;fontColor=#5C5C5C;" vertex="1" parent="0BrPGM0M6bQbIfucwhwL-4">
          <mxGeometry y="52" width="140" height="26" as="geometry" />
        </mxCell>
        <mxCell id="0BrPGM0M6bQbIfucwhwL-7" value="ifindexprofile" style="text;strokeColor=none;fillColor=none;align=left;verticalAlign=top;spacingLeft=4;spacingRight=4;overflow=hidden;rotatable=0;points=[[0,0.5],[1,0.5]];portConstraint=eastwest;fontColor=#5C5C5C;" vertex="1" parent="0BrPGM0M6bQbIfucwhwL-4">
          <mxGeometry y="78" width="140" height="26" as="geometry" />
        </mxCell>
        <mxCell id="0BrPGM0M6bQbIfucwhwL-5" value="devices" style="text;strokeColor=none;fillColor=none;align=left;verticalAlign=top;spacingLeft=4;spacingRight=4;overflow=hidden;rotatable=0;points=[[0,0.5],[1,0.5]];portConstraint=eastwest;fontColor=#5C5C5C;" vertex="1" parent="0BrPGM0M6bQbIfucwhwL-4">
          <mxGeometry y="104" width="140" height="26" as="geometry" />
        </mxCell>
        <mxCell id="0BrPGM0M6bQbIfucwhwL-18" style="edgeStyle=orthogonalEdgeStyle;curved=0;rounded=1;sketch=0;orthogonalLoop=1;jettySize=auto;html=1;entryX=0.515;entryY=1;entryDx=0;entryDy=0;entryPerimeter=0;fontColor=#5C5C5C;strokeColor=#006658;fillColor=#21C0A5;" edge="1" parent="1" source="0BrPGM0M6bQbIfucwhwL-9" target="0BrPGM0M6bQbIfucwhwL-1">
          <mxGeometry relative="1" as="geometry" />
        </mxCell>
        <mxCell id="0BrPGM0M6bQbIfucwhwL-9" value="" style="aspect=fixed;perimeter=ellipsePerimeter;html=1;align=center;shadow=0;dashed=0;spacingTop=3;image;image=img/lib/active_directory/database_server.svg;rounded=0;sketch=0;fontColor=#5C5C5C;strokeColor=#006658;fillColor=#21C0A5;" vertex="1" parent="1">
          <mxGeometry x="70" y="100" width="57.4" height="70" as="geometry" />
        </mxCell>
        <mxCell id="0BrPGM0M6bQbIfucwhwL-10" value="&lt;b&gt;PM - SERVER&lt;/b&gt;" style="text;html=1;align=center;verticalAlign=middle;resizable=0;points=[];autosize=1;strokeColor=none;fontColor=#5C5C5C;" vertex="1" parent="1">
          <mxGeometry x="80" y="70" width="90" height="20" as="geometry" />
        </mxCell>
        <mxCell id="0BrPGM0M6bQbIfucwhwL-16" style="edgeStyle=orthogonalEdgeStyle;curved=0;rounded=1;sketch=0;orthogonalLoop=1;jettySize=auto;html=1;fontColor=#5C5C5C;strokeColor=#006658;fillColor=#21C0A5;" edge="1" parent="1" source="0BrPGM0M6bQbIfucwhwL-11" target="0BrPGM0M6bQbIfucwhwL-1">
          <mxGeometry relative="1" as="geometry" />
        </mxCell>
        <mxCell id="0BrPGM0M6bQbIfucwhwL-11" value="" style="shape=image;html=1;verticalAlign=top;verticalLabelPosition=bottom;labelBackgroundColor=#ffffff;imageAspect=0;aspect=fixed;image=https://cdn4.iconfinder.com/data/icons/logos-and-brands/512/267_Python_logo-128.png;rounded=0;sketch=0;fontColor=#5C5C5C;strokeColor=#006658;fillColor=#21C0A5;" vertex="1" parent="1">
          <mxGeometry x="430" y="140" width="58" height="58" as="geometry" />
        </mxCell>
        <mxCell id="0BrPGM0M6bQbIfucwhwL-22" value="&lt;b&gt;GET&lt;/b&gt;" style="text;html=1;align=center;verticalAlign=middle;resizable=0;points=[];autosize=1;strokeColor=none;fontColor=#5C5C5C;" vertex="1" parent="1">
          <mxGeometry x="320" y="140" width="40" height="20" as="geometry" />
        </mxCell>
        <mxCell id="0BrPGM0M6bQbIfucwhwL-23" value="" style="aspect=fixed;html=1;points=[];align=center;image;fontSize=12;image=img/lib/mscae/Shared_Dashboard.svg;rounded=0;sketch=0;fontColor=#5C5C5C;strokeColor=#006658;fillColor=#21C0A5;" vertex="1" parent="1">
          <mxGeometry x="670" y="90" width="97.57" height="80" as="geometry" />
        </mxCell>
      </root>
    </mxGraphModel>
  </diagram>
</mxfile>
